<?xml version="1.0" encoding="UTF-8" standalone="no"?>
<svg
   width="64"
   height="64"
   viewBox="0 0 16.933333 16.933334"
   version="1.1"
   id="svg8"
   sodipodi:docname="wireframe.svg"
   inkscape:version="1.1.2 (0a00cf5339, 2022-02-04, custom)"
   xmlns:inkscape="http://www.inkscape.org/namespaces/inkscape"
   xmlns:sodipodi="http://sodipodi.sourceforge.net/DTD/sodipodi-0.dtd"
   xmlns="http://www.w3.org/2000/svg"
   xmlns:svg="http://www.w3.org/2000/svg"
   xmlns:rdf="http://www.w3.org/1999/02/22-rdf-syntax-ns#"
   xmlns:cc="http://creativecommons.org/ns#"
   xmlns:dc="http://purl.org/dc/elements/1.1/">
  <sodipodi:namedview
     id="namedview13"
     pagecolor="#505050"
     bordercolor="#eeeeee"
     borderopacity="1"
     inkscape:pageshadow="0"
     inkscape:pageopacity="0"
     inkscape:pagecheckerboard="0"
     showgrid="false"
     inkscape:zoom="5.6568543"
     inkscape:cx="13.725472"
     inkscape:cy="29.05857"
     inkscape:window-width="1920"
     inkscape:window-height="1011"
     inkscape:window-x="0"
     inkscape:window-y="0"
     inkscape:window-maximized="1"
     inkscape:current-layer="g5977"
     inkscape:rotation="-1" />
  <defs
     id="defs2" />
  <metadata
     id="metadata5">
    <rdf:RDF>
      <cc:Work
         rdf:about="">
        <dc:format>image/svg+xml</dc:format>
        <dc:type
           rdf:resource="http://purl.org/dc/dcmitype/StillImage" />
      </cc:Work>
    </rdf:RDF>
  </metadata>
  <g
     inkscape:label="WireframeSphere"
     transform="matrix(0.98432,0,0,0.984126,8.4671,8.46456)"
     id="g5977"
     style="stroke:#ffffff;stroke-width:1.01603">
    <g
       inkscape:label="WireframeSphere"
       transform="matrix(0.80770859,0.50481183,-0.50307889,0.80525322,3.4885036e-4,-0.02459151)"
       id="g1451"
       style="stroke:#ffffff;stroke-width:1.08553">
      <g
         inkscape:label="Lines of Longitude"
         id="g1437"
         style="stroke:#ffffff;stroke-width:1.08553">
        <path
           style="fill:none;stroke:#ffffff;stroke-width:1.13073;stroke-miterlimit:4;stroke-dasharray:none"
           sodipodi:cx="0"
           sodipodi:cy="0"
           sodipodi:rx="0.001"
           sodipodi:ry="8.4666662"
           sodipodi:start="0.00096231283"
           sodipodi:end="6.282519"
           sodipodi:type="arc"
           sodipodi:arc-type="slice"
           id="path1429"
           d="M 9.9999958e-4,0.00814758 A 0.001,8.4666662 0 0 1 -5.5515783e-7,8.4666649 0.001,8.4666662 0 0 1 -0.001,-0.00125309 0.001,8.4666662 0 0 1 -2.5915219e-7,-8.4666659 0.001,8.4666662 0 0 1 9.9999983e-4,-0.0056414 L 0,0 Z" />
        <path
           style="fill:none;stroke:#ffffff;stroke-width:1.13073;stroke-miterlimit:4;stroke-dasharray:none"
           sodipodi:cx="0"
           sodipodi:cy="0"
           sodipodi:rx="5.9878373"
           sodipodi:ry="8.4666662"
           sodipodi:start="1.5707963"
           sodipodi:end="4.712389"
           sodipodi:open="true"
           sodipodi:type="arc"
           sodipodi:arc-type="arc"
           id="path1431"
           d="m 0,8.4666662 a 5.9878373,8.4666662 0 0 1 -5.1856192,-4.233333 5.9878373,8.4666662 0 0 1 0,-8.4666663 A 5.9878373,8.4666662 0 0 1 0,-8.4666662" />
        <path
           style="fill:none;stroke:#ffffff;stroke-width:0.282679"
           sodipodi:cx="0"
           sodipodi:cy="0"
           sodipodi:rx="8.4676666"
           sodipodi:ry="8.4666662"
           sodipodi:start="1.5707963"
           sodipodi:end="4.712389"
           sodipodi:open="true"
           sodipodi:type="arc"
           sodipodi:arc-type="arc"
           id="path1433"
           d="m 0,8.4666662 a 8.4676666,8.4666662 0 0 1 -7.3332144,-4.233333 8.4676666,8.4666662 0 0 1 0,-8.4666663 A 8.4676666,8.4666662 0 0 1 0,-8.4666662" />
        <path
           style="fill:none;stroke:#ffffff;stroke-width:1.13073;stroke-miterlimit:4;stroke-dasharray:none"
           sodipodi:cx="0"
           sodipodi:cy="0"
           sodipodi:rx="5.9878373"
           sodipodi:ry="8.4666662"
           sodipodi:start="4.712389"
           sodipodi:end="1.5707963"
           sodipodi:open="true"
           sodipodi:type="arc"
           sodipodi:arc-type="arc"
           id="path1435"
           d="M 0,-8.4666662 A 5.9878373,8.4666662 0 0 1 5.9878373,0 5.9878373,8.4666662 0 0 1 0,8.4666662" />
      </g>
      <g
         inkscape:label="Lines of Latitude"
         id="g1447"
         style="stroke:#ffffff;stroke-width:1.08553">
        <path
           style="fill:none;stroke:#ffffff;stroke-width:1.13073;stroke-miterlimit:4;stroke-dasharray:none"
           sodipodi:cx="0"
           sodipodi:cy="6.8496771"
           sodipodi:rx="4.9765816"
           sodipodi:ry="0.001"
           sodipodi:start="4.7144215"
           sodipodi:end="3.1415927"
           sodipodi:type="arc"
           sodipodi:arc-type="slice"
           id="path1439"
           d="m 0.01011499,6.8486771 a 4.9765816,0.001 0 0 1 4.96646201,0.001 4.9765816,0.001 0 0 1 -4.97994882,9.987e-4 4.9765816,0.001 0 0 1 -4.97320978,-0.001 H 0 Z" />
        <path
           style="fill:none;stroke:#ffffff;stroke-width:1.13073;stroke-miterlimit:4;stroke-dasharray:none"
           sodipodi:cx="0"
           sodipodi:cy="2.616344"
           sodipodi:rx="8.0522785"
           sodipodi:ry="0.001"
           sodipodi:start="4.7149154"
           sodipodi:end="3.1415927"
           sodipodi:type="arc"
           sodipodi:arc-type="slice"
           id="path1441"
           d="m 0.02034341,2.615344 a 8.0522785,0.001 0 0 1 8.03192369,0.001 8.0522785,0.001 0 0 1 -8.05904849,9.983e-4 8.0522785,0.001 0 0 1 -8.04549711,-0.001 H 0 Z" />
        <path
           style="fill:none;stroke:#ffffff;stroke-width:1.13073;stroke-miterlimit:4;stroke-dasharray:none"
           sodipodi:cx="0"
           sodipodi:cy="-2.616344"
           sodipodi:rx="8.0522785"
           sodipodi:ry="0.001"
           sodipodi:start="4.7162869"
           sodipodi:end="3.1415927"
           sodipodi:type="arc"
           sodipodi:arc-type="slice"
           id="path1443"
           d="m 0.03138705,-2.617344 a 8.0522785,0.001 0 0 1 8.02086425,0.001 8.0522785,0.001 0 0 1 -8.06271392,9.974e-4 8.0522785,0.001 0 0 1 -8.04181588,-10e-4 H 0 Z" />
        <path
           style="fill:none;stroke:#ffffff;stroke-width:1.13073;stroke-miterlimit:4;stroke-dasharray:none"
           sodipodi:cx="0"
           sodipodi:cy="-6.8496771"
           sodipodi:rx="4.9765816"
           sodipodi:ry="0.001"
           sodipodi:start="4.7152095"
           sodipodi:end="3.1415927"
           sodipodi:type="arc"
           sodipodi:arc-type="slice"
           id="path1445"
           d="m 0.01403653,-6.8506771 a 4.9765816,0.001 0 0 1 4.96253627,0.001 4.9765816,0.001 0 0 1 -4.9812518,9.981e-4 4.9765816,0.001 0 0 1 -4.9719026,-0.001 H 0 Z" />
      </g>
      <circle
         style="fill:none;stroke:#ffffff;stroke-width:1.13073;stroke-miterlimit:4;stroke-dasharray:none"
         id="path1449"
         cx="0"
         cy="0"
         r="8.4666662" />
    </g>
  </g>
</svg>
